<?xml version='1.0' encoding='utf-8'?>
<svg xmlns="http://www.w3.org/2000/svg" width="123.15mm" height="122.25mm" version="1.1" viewBox="0 0 123.15 122.25"> <g transform="translate(-33.706 -13.024)"> <g transform="translate(-2.3498 -115.14)"> <path d="m37.556 158.26 60.685-28.599 59.363 28.599-59.216 30.292z" fill="#d38d5f" stroke="#000" stroke-linejoin="round" stroke-width="3"/> <path d="m98.387 188.55 59.216-30.292 0.10385 60.069c-19.461 10.068-39.581 20.358-59.509 30.583z" fill="#d38d5f" stroke="#000" stroke-linejoin="round" stroke-width="3"/> <path d="m37.556 158.26 60.832 30.292-0.18935 60.36-60.642-31.048z" fill="#d38d5f" stroke="#000" stroke-linejoin="round" stroke-width="3"/> <path d="m78.64 138.9 56.692 30.007v17.635l-14.205 6.8357-0.0618-16.424-59.436-30.037z" fill="#deaa87" stroke="#000" stroke-linejoin="round" stroke-width="3"/> <path d="m121.13 237.16 14.205-7.292v-10.033l-14.205 7.238z" fill="#deaa87" stroke="#000" stroke-linejoin="round" stroke-width="3"/> <g transform="translate(.25655 -75.811)"> <path d="m43.586 247.64 23.886 12.179-0.07435 24.267-23.811-12.483z" fill="#fff" stroke="#000" stroke-linejoin="round"/> <g transform="matrix(.71647 .3646 -.0071084 .56762 27.028 96.642)" fill="#fff" stroke="#000" stroke-linejoin="round"> <rect x="27.977" y="282.19" width="21.442" height="6.9024" stroke-width=".33"/> <path transform="translate(3.6785 44.322)" d="m37.592 238.66-0.03676 5.3831" stroke-width=".3"/> <path transform="translate(5.6951 44.322)" d="m37.592 238.66-0.03676 5.3831" stroke-width=".4"/> <path transform="translate(6.7284 44.322)" d="m37.592 238.66-0.03676 5.3831" stroke-width=".3"/> <path transform="translate(8.9949 44.322)" d="m37.592 238.66-0.03676 5.3831" stroke-width=".5"/> <path transform="translate(10.078 44.322)" d="m37.592 238.66-0.03676 5.3831" stroke-width=".3"/> <path transform="translate(4.6618 44.322)" d="m37.592 238.66-0.03676 5.3831" stroke-width=".3"/> <path transform="translate(7.8116 44.322)" d="m37.592 238.66-0.03676 5.3831" stroke-width=".5"/> <path transform="translate(11.061 44.322)" d="m37.592 238.66-0.03676 5.3831" stroke-width=".3"/> <path transform="translate(2.6202 44.322)" d="m37.592 238.66-0.03676 5.3831" stroke-width=".45"/> <path transform="translate(-5.1877 44.322)" d="m37.592 238.66-0.03676 5.3831" stroke-width=".3"/> <path transform="translate(-8.5176 44.323)" d="m37.592 238.66-0.03676 5.3831" stroke-width=".6"/> <path transform="translate(-7.2843 44.322)" d="m37.592 238.66-0.03676 5.3831" stroke-width=".5"/> <path transform="translate(-6.186 44.322)" d="m37.592 238.66-0.03676 5.3831" stroke-width=".33"/> <path transform="translate(-4.1545 44.322)" d="m37.592 238.66-0.03676 5.3831" stroke-width=".4"/> <path transform="translate(-1.8629 44.322)" d="m37.592 238.66-0.03676 5.3831" stroke-width=".25"/> <path transform="translate(-.80462 44.322)" d="m37.592 238.66-0.03676 5.3831" stroke-width=".5"/> <path transform="translate(1.4619 44.322)" d="m37.592 238.66-0.03676 5.3831" stroke-width=".5"/> <path transform="translate(-2.9712 44.323)" d="m37.592 238.66-0.03676 5.3831" stroke-width=".6"/> <path transform="translate(.32867 44.322)" d="m37.592 238.66-0.03676 5.3831" stroke-width=".4"/> </g> <path d="m45.05 253.37 19.58 9.8853-0.0045 1.1936-19.578-9.784z"/> <path d="m45.047 256.22 9.8662 5.0323-2e-6 0.89415-9.8663-5.0452z"/> <path d="m45.047 258.45 9.8663 4.8009 2e-6 0.99695-9.8663-4.8132z"/> <path d="m45.05 260.62 6.8528 3.4833 0.0037 0.79416-6.8592-3.4909z"/> </g> </g> </g> </svg>